<?xml version="1.0"?><svg id="Content" xmlns="http://www.w3.org/2000/svg" viewBox="0 0 828.78 312.26">
  <defs><style>#Content path,#Content polygon{fill:#212222}</style></defs>
  <path class="cls-1" d="M284.86,220.6h11.44l20.21,40.26,20.13-40.26h11.44l-31.57,61.91-31.64-61.91Z"></path>
  <path class="cls-1" d="M369.57,220.75v59.78h-10.45v-59.78h10.45Z"></path>
  <path class="cls-1" d="M380.55,220.6h11.44l20.21,40.26,20.13-40.26h11.44l-31.57,61.91-31.64-61.91Z"></path>
  <path class="cls-1" d="M465.27,220.75v59.78h-10.45v-59.78h10.45Z"></path>
  <path class="cls-1" d="M538.47,270.39v10.14h-55.97v-59.78h55.97v10.14h-45.52v14.79h30.73v9.91h-30.73v14.79h45.52Z"></path>
  <path class="cls-1" d="M564.62,280.53h-10.45v-61.46l49.41,41.71v-40.03h10.37v61.84l-49.33-41.71v39.65Z"></path>
  <path class="cls-1" d="M661,280.53h-29.81v-59.78h29.81c8.23,0,15.25,2.9,21.12,8.77s8.85,12.88,8.85,21.12-2.97,15.25-8.85,21.12-12.89,8.77-21.12,8.77ZM641.64,230.96v39.35h19.37c5.41,0,9.99-1.91,13.8-5.79,3.89-3.89,5.79-8.46,5.79-13.88s-1.91-10.06-5.79-13.88c-3.81-3.89-8.39-5.79-13.8-5.79h-19.37Z"></path>
  <path class="cls-1" d="M715.45,269.55l-5.64,10.98h-11.67l31.11-62.37,32.18,62.37h-11.74l-5.87-10.98h-28.36ZM729.4,239.58l-9.91,20.81h20.13l-10.22-20.81Z"></path>
  <path d="M602.89,186.91h-132.9V32.77c1.08-.05,2.12-.15,3.16-.15,42.12-.02,84.25-.04,126.37-.03,4.03,0,3.5-.53,3.52,3.6.02,5.11.04,10.22.04,15.34,0,2.6-.01,2.61-2.63,2.61-18.79.02-37.59.04-56.38.04-15.57,0-31.15-.01-46.72-.03-3.14,0-2.76-.03-2.76,2.55-.03,13.83-.08,27.65-.11,41.48,0,.25.07.5.14.95.72.04,1.42.1,2.11.1,26.61,0,53.23,0,79.84-.06,1.78,0,2.35.39,2.3,2.26-.14,5.7-.11,11.4,0,17.1.03,1.65-.46,2.1-2.1,2.1-26.55-.06-53.1-.03-79.65-.11-1.91,0-2.56.34-2.55,2.42.05,13.7-.04,27.39-.09,41.09,0,.39.05.77.09,1.35.83.04,1.59.1,2.35.1,34.76-.01,69.53-.03,104.29-.06,1.04,0,1.95-.14,1.93,1.42-.07,6.42-.06,12.84-.09,19.27,0,.25-.09.5-.16.83Z"></path>
  <path d="M29.52,186.83c25.77-52.33,51.45-104.48,77.38-157.14,25.92,52.62,51.6,104.76,77.42,157.18-.96.06-1.58.13-2.19.13-7.36,0-14.72-.04-22.08.05-1.55.02-2.29-.47-2.95-1.87-4.15-8.82-8.38-17.6-12.68-26.35-.27-.55-1.32-1.04-2-1.04-21.55-.04-43.1-.02-64.65-.01-2.17,0-4.35-.11-6.5.07-.71.06-1.67.69-1.98,1.32-4.33,8.75-8.54,17.55-12.86,26.3-.33.66-1.26,1.46-1.92,1.47-8.08.1-16.16.06-24.24.06-.19,0-.38-.08-.76-.17ZM133.2,136.09c-8.74-17.91-17.41-35.7-26.25-53.83-8.92,18.17-17.61,35.89-26.41,53.83h52.67Z"></path>
  <path d="M613.67,187.01c25.86-52.52,51.55-104.7,77.47-157.34,25.9,52.6,51.61,104.81,77.47,157.33-6.09,0-11.66,0-17.24,0-2.5,0-5-.07-7.49.04-1.26.06-1.84-.43-2.35-1.51-3.96-8.34-8.05-16.61-11.93-24.98-.99-2.14-2.1-2.86-4.55-2.84-17.21.13-34.43.04-51.65.03-5.85,0-11.7.06-17.54.03-1.19,0-1.82.29-2.38,1.46-4.18,8.74-8.5,17.43-12.72,26.16-.59,1.23-1.3,1.67-2.69,1.66-8.01-.07-16.02-.03-24.39-.03ZM717.48,136.13c-8.79-17.99-17.45-35.73-26.31-53.87-8.93,18.23-17.6,35.94-26.38,53.87h52.69Z"></path>
  <path d="M300.33,32.62c4.07,0,7.87,0,11.68,0,47.18-.02,94.36-.02,141.53-.08,1.56,0,1.88.55,1.87,1.94-.07,5.83-.13,11.67-.03,17.5.03,1.75-.51,2.22-2.22,2.22-19.78-.06-39.56-.05-59.33-.05-1.1,0-2.2,0-3.54,0v132.75h-24.61c-.07-1.05-.19-2.14-.19-3.23-.02-41.74-.04-83.49-.04-125.23,0-4.26.03-4.28-4.19-4.28-19.52,0-39.03,0-58.55.07-1.92,0-2.44-.56-2.41-2.43.11-6.28.04-12.56.04-19.17Z"></path>
  <path d="M333.43,186.92h-134.5c-.07-1.21-.21-2.42-.21-3.64,0-49.47,0-98.95-.04-148.42,0-1.68.38-2.29,2.16-2.27,7.09.08,14.19.04,21.29-.02,1.27-.01,1.6.54,1.59,1.64-.02,2.49,0,4.98,0,7.47-.01,39.19-.03,78.37-.05,117.56,0,2.01,0,4.02,0,6.28,2.17,0,4.13,0,6.08,0,33.9-.02,67.81-.04,101.71-.06,1,0,1.99-.19,1.98,1.39-.05,6.61-.02,13.22-.02,20.07Z"></path>
  <g>
    <path d="M750.55,82.31h18.44c2.95-24.87,1.02-15.65,5.99-49.75-8.25,16.79-16.29,33.17-24.44,49.75Z"></path>
    <path class="cls-1" d="M797.77,79.21c-6.35-12.87-12.66-25.76-18.96-38.65-1.21-2.48-2.38-4.98-3.82-7.99-4.97,34.1-3.04,24.87-5.99,49.75h30.27l-1.5-3.11Z"></path>
  </g>
</svg>
